<svg width="208" height="79" viewBox="0 0 208 79" fill="none" xmlns="http://www.w3.org/2000/svg">
<path d="M53.4765 26.05C53.6765 28.8167 53.0348 31.0333 51.5515 32.7C50.0848 34.35 48.1515 35.175 45.7515 35.175C43.4015 35.175 41.3348 34.3333 39.5515 32.65C37.7681 30.95 36.8765 28.8167 36.8765 26.25C36.8765 23.6833 37.7598 21.5583 39.5265 19.875C41.3098 18.175 43.3848 17.325 45.7515 17.325C47.0181 17.325 48.1765 17.5667 49.2265 18.05C50.2765 18.5167 51.1265 19.125 51.7765 19.875L50.1765 21.65C49.7265 21.1167 49.1098 20.6833 48.3265 20.35C47.5431 20 46.6848 19.825 45.7515 19.825C44.1181 19.825 42.6931 20.4333 41.4765 21.65C40.2765 22.8667 39.6765 24.3917 39.6765 26.225C39.6765 28.0417 40.2848 29.575 41.5015 30.825C42.7348 32.0583 44.1515 32.675 45.7515 32.675C47.2015 32.675 48.3848 32.275 49.3015 31.475C50.2348 30.675 50.7848 29.5417 50.9515 28.075H47.0515V26.05H53.4765ZM69.7317 17.5V28.525C69.7317 30.5417 69.0734 32.1583 67.7567 33.375C66.4567 34.575 64.8317 35.175 62.8817 35.175C60.9317 35.175 59.2984 34.575 57.9817 33.375C56.6817 32.1583 56.0317 30.5417 56.0317 28.525V17.5H58.5567V28.525C58.5567 29.975 58.9651 31.0833 59.7817 31.85C60.5984 32.6 61.6317 32.975 62.8817 32.975C64.1151 32.975 65.1401 32.5917 65.9567 31.825C66.7901 31.0583 67.2067 29.9583 67.2067 28.525V17.5H69.7317ZM75.3751 32.725H83.8501V35H72.7251V17.5H83.6001V19.775H75.3751V25.175H81.1001V27.45H75.3751V32.725ZM92.3981 17.325C93.7815 17.325 94.9815 17.6667 95.9981 18.35C97.0148 19.0333 97.7481 19.8667 98.1981 20.85L95.9481 21.625C95.6815 21.0083 95.2398 20.5167 94.6231 20.15C94.0231 19.7667 93.3065 19.575 92.4731 19.575C91.5898 19.575 90.8648 19.7833 90.2981 20.2C89.7315 20.6167 89.4481 21.1583 89.4481 21.825C89.4481 22.4417 89.6398 22.95 90.0231 23.35C90.4231 23.75 91.0731 24.1 91.9731 24.4L93.3731 24.875C95.1065 25.4583 96.3981 26.1833 97.2481 27.05C98.1148 27.9167 98.5481 28.9833 98.5481 30.25C98.5481 31.7667 97.9148 32.9667 96.6481 33.85C95.3981 34.7333 93.9815 35.175 92.3981 35.175C90.8481 35.175 89.4981 34.8 88.3481 34.05C87.2148 33.3 86.4231 32.3083 85.9731 31.075L88.1231 30.125C88.4231 30.9417 88.9565 31.6167 89.7231 32.15C90.4898 32.6667 91.3815 32.925 92.3981 32.925C93.3648 32.925 94.1981 32.6917 94.8981 32.225C95.6148 31.7583 95.9731 31.1 95.9731 30.25C95.9731 29.45 95.7148 28.8417 95.1981 28.425C94.6815 27.9917 93.8648 27.5833 92.7481 27.2L91.2981 26.675C89.8815 26.175 88.7898 25.55 88.0231 24.8C87.2565 24.05 86.8731 23.0583 86.8731 21.825C86.8731 20.525 87.4065 19.45 88.4731 18.6C89.5565 17.75 90.8648 17.325 92.3981 17.325ZM106.973 17.325C108.357 17.325 109.557 17.6667 110.573 18.35C111.59 19.0333 112.323 19.8667 112.773 20.85L110.523 21.625C110.257 21.0083 109.815 20.5167 109.198 20.15C108.598 19.7667 107.882 19.575 107.048 19.575C106.165 19.575 105.44 19.7833 104.873 20.2C104.307 20.6167 104.023 21.1583 104.023 21.825C104.023 22.4417 104.215 22.95 104.598 23.35C104.998 23.75 105.648 24.1 106.548 24.4L107.948 24.875C109.682 25.4583 110.973 26.1833 111.823 27.05C112.69 27.9167 113.123 28.9833 113.123 30.25C113.123 31.7667 112.49 32.9667 111.223 33.85C109.973 34.7333 108.557 35.175 106.973 35.175C105.423 35.175 104.073 34.8 102.923 34.05C101.79 33.3 100.998 32.3083 100.548 31.075L102.698 30.125C102.998 30.9417 103.532 31.6167 104.298 32.15C105.065 32.6667 105.957 32.925 106.973 32.925C107.94 32.925 108.773 32.6917 109.473 32.225C110.19 31.7583 110.548 31.1 110.548 30.25C110.548 29.45 110.29 28.8417 109.773 28.425C109.257 27.9917 108.44 27.5833 107.323 27.2L105.873 26.675C104.457 26.175 103.365 25.55 102.598 24.8C101.832 24.05 101.448 23.0583 101.448 21.825C101.448 20.525 101.982 19.45 103.048 18.6C104.132 17.75 105.44 17.325 106.973 17.325Z" fill="#33D664"/>
<path d="M75.009 61.975C75.5257 61.975 76.0923 61.85 76.709 61.6V63.7C76.109 64 75.334 64.15 74.384 64.15C73.4673 64.15 72.7423 63.9167 72.209 63.45C71.6923 62.9833 71.434 62.125 71.434 60.875V53.075H69.934V51H71.434V48.75H73.959V51H76.709V53.075H73.959V60.75C73.959 61.5667 74.309 61.975 75.009 61.975ZM86.1551 50.875C87.5217 50.875 88.6801 51.3417 89.6301 52.275C90.5967 53.1917 91.0801 54.5917 91.0801 56.475V64H88.5551V56.575C88.5551 55.3583 88.2884 54.4667 87.7551 53.9C87.2384 53.3333 86.5301 53.05 85.6301 53.05C84.5801 53.05 83.6801 53.45 82.9301 54.25C82.1801 55.0333 81.7384 55.7917 81.6051 56.525V64H79.0801V46.5H81.6051V53.9C81.6884 53.3 82.1551 52.65 83.0051 51.95C83.8551 51.2333 84.9051 50.875 86.1551 50.875ZM99.8732 50.85C100.59 50.85 101.315 50.9917 102.048 51.275C102.782 51.5583 103.465 51.9667 104.098 52.5C104.732 53.0167 105.248 53.7167 105.648 54.6C106.048 55.4833 106.248 56.4583 106.248 57.525C106.248 57.8583 106.223 58.175 106.173 58.475H96.0482C96.1816 59.5583 96.6316 60.4167 97.3982 61.05C98.1816 61.6667 99.0232 61.975 99.9232 61.975C101.223 61.975 102.24 61.5667 102.973 60.75L105.023 61.875C103.707 63.4083 102.007 64.175 99.9232 64.175C99.2066 64.175 98.4816 64.0417 97.7482 63.775C97.0149 63.4917 96.3149 63.0917 95.6482 62.575C94.9982 62.0417 94.4649 61.3417 94.0482 60.475C93.6482 59.5917 93.4482 58.6083 93.4482 57.525C93.4482 56.4583 93.6482 55.4833 94.0482 54.6C94.4482 53.7167 94.9649 53.0167 95.5982 52.5C96.2482 51.9667 96.9399 51.5583 97.6732 51.275C98.4066 50.9917 99.1399 50.85 99.8732 50.85ZM99.8732 53.05C98.9732 53.05 98.1482 53.35 97.3982 53.95C96.6649 54.55 96.2232 55.4083 96.0732 56.525H103.698C103.532 55.4083 103.073 54.55 102.323 53.95C101.573 53.35 100.757 53.05 99.8732 53.05ZM129.463 64L127.563 59.725H120.088L118.188 64H115.363L123.563 46.5H124.063L132.263 64H129.463ZM121.063 57.575H126.588L123.813 51.4L121.063 57.575ZM147.353 64H144.478L139.928 57.4H137.228V64H134.628V46.5H140.528C142.428 46.5 143.936 47.0083 145.053 48.025C146.186 49.0417 146.753 50.35 146.753 51.95C146.753 53.2333 146.378 54.3417 145.628 55.275C144.878 56.2083 143.853 56.8417 142.553 57.175L147.353 64ZM137.228 48.8V55.1H140.378C141.545 55.1 142.461 54.825 143.128 54.275C143.811 53.725 144.153 52.95 144.153 51.95C144.153 50.95 143.811 50.175 143.128 49.625C142.461 49.075 141.545 48.8 140.378 48.8H137.228ZM160.63 46.5V48.8H155.93V64H153.205V48.8H148.505V46.5H160.63ZM166.16 46.5V64H163.535V46.5H166.16ZM175.362 46.325C176.745 46.325 177.945 46.6667 178.962 47.35C179.978 48.0333 180.712 48.8667 181.162 49.85L178.912 50.625C178.645 50.0083 178.203 49.5167 177.587 49.15C176.987 48.7667 176.27 48.575 175.437 48.575C174.553 48.575 173.828 48.7833 173.262 49.2C172.695 49.6167 172.412 50.1583 172.412 50.825C172.412 51.4417 172.603 51.95 172.987 52.35C173.387 52.75 174.037 53.1 174.937 53.4L176.337 53.875C178.07 54.4583 179.362 55.1833 180.212 56.05C181.078 56.9167 181.512 57.9833 181.512 59.25C181.512 60.7667 180.878 61.9667 179.612 62.85C178.362 63.7333 176.945 64.175 175.362 64.175C173.812 64.175 172.462 63.8 171.312 63.05C170.178 62.3 169.387 61.3083 168.937 60.075L171.087 59.125C171.387 59.9417 171.92 60.6167 172.687 61.15C173.453 61.6667 174.345 61.925 175.362 61.925C176.328 61.925 177.162 61.6917 177.862 61.225C178.578 60.7583 178.937 60.1 178.937 59.25C178.937 58.45 178.678 57.8417 178.162 57.425C177.645 56.9917 176.828 56.5833 175.712 56.2L174.262 55.675C172.845 55.175 171.753 54.55 170.987 53.8C170.22 53.05 169.837 52.0583 169.837 50.825C169.837 49.525 170.37 48.45 171.437 47.6C172.52 46.75 173.828 46.325 175.362 46.325ZM195.787 46.5V48.8H191.087V64H188.362V48.8H183.662V46.5H195.787Z" fill="#33D664"/>
<rect x="16.5" y="2.5" width="149" height="49" stroke="#33D664"/>
<rect x="56.5" y="27.5" width="149" height="49" stroke="#33D664"/>
<line x1="91.25" y1="2" x2="91.25" y2="27" stroke="#33D664" stroke-width="0.5"/>
<line x1="206" y1="40.25" x2="166" y2="40.25" stroke="#33D664" stroke-width="0.5"/>
<line x1="91.25" y1="52" x2="91.25" y2="77" stroke="#33D664" stroke-width="0.5"/>
<line x1="56" y1="40.25" x2="16" y2="40.25" stroke="#33D664" stroke-width="0.5"/>
</svg>
