<svg width="44" height="44" viewBox="0 0 44 44" fill="none" xmlns="http://www.w3.org/2000/svg">
<path d="M37.7336 7.72784C32.7503 2.74441 26.1246 0 19.077 0C12.0295 0 5.40384 2.74441 0.420492 7.72784C-0.140164 8.28841 -0.140164 9.19737 0.420492 9.75795C0.981063 10.3187 1.89002 10.3187 2.45059 9.75795C11.6183 0.590134 26.5354 0.590048 35.7035 9.75795C42.9259 16.9803 42.9259 28.7319 35.7035 35.9543C30.0375 41.6201 20.8185 41.6201 15.1525 35.9543C10.7317 31.5335 10.7317 24.3403 15.1525 19.9195C18.5773 16.4948 24.1495 16.4948 27.5743 19.9195C28.8473 21.1924 29.5484 22.8849 29.5484 24.6852C29.5484 26.4853 28.8473 28.1779 27.5743 29.4509C25.584 31.4412 22.3455 31.4412 20.3552 29.4509C19.6348 28.7305 19.2097 27.6968 19.1887 26.6151C19.1676 25.5257 19.5434 24.5383 20.2467 23.8349C21.3466 22.7352 23.003 22.6991 24.0996 23.7511C24.5335 24.1673 24.7404 24.8671 24.6027 25.4529C24.4714 26.011 24.0499 26.4048 23.3498 26.6234C22.593 26.8597 22.1711 27.6647 22.4072 28.4214C22.6434 29.1784 23.4483 29.5999 24.2052 29.3641C25.8698 28.8444 27.0333 27.6585 27.3974 26.1102C27.7675 24.537 27.2532 22.7977 26.0871 21.6793C23.8706 19.5533 20.4133 19.6082 18.2167 21.8049C16.9744 23.0471 16.2825 24.8207 16.3183 26.6708C16.3536 28.4876 17.0851 30.241 18.3253 31.4811C19.8804 33.0361 21.9224 33.8136 23.965 33.8133C26.0071 33.8131 28.0499 33.0357 29.6046 31.4811C31.4199 29.6659 32.4196 27.2524 32.4196 24.6854C32.4196 22.1182 31.4199 19.7048 29.6046 17.8896C25.0607 13.3455 17.6666 13.3455 13.1227 17.8896C7.58244 23.4298 7.58244 32.4443 13.1227 37.9845C16.5154 41.3772 20.9718 43.0735 25.4282 43.0735C29.8847 43.0735 34.3412 41.3772 37.7338 37.9845C41.7745 33.9434 44 28.5707 44 22.856C44 17.1414 41.7745 11.7688 37.7336 7.72784Z" fill="#7BE7FF"/>
</svg>
