<svg width="37" height="42" viewBox="0 0 37 42" fill="none" xmlns="http://www.w3.org/2000/svg">
<path d="M36 4.5C36 4.50575 35.9995 4.52361 35.9835 4.56018C35.9663 4.59972 35.9299 4.66297 35.8557 4.74753C35.7019 4.92293 35.4305 5.13942 35.0019 5.37707C34.1457 5.85189 32.8465 6.31116 31.1712 6.70905C27.8364 7.50109 23.2286 8 18.2466 8C13.2642 8 8.7868 7.50101 5.58375 6.71107C3.97446 6.31419 2.7428 5.85722 1.93761 5.38773C1.06156 4.87692 1 4.54279 1 4.5C1 4.45721 1.06156 4.12308 1.93761 3.61227C2.7428 3.14278 3.97446 2.68581 5.58375 2.28893C8.7868 1.49899 13.2642 1 18.2466 1C23.2286 1 27.8364 1.49891 31.1712 2.29095C32.8465 2.68884 34.1457 3.14811 35.0019 3.62293C35.4305 3.86058 35.7019 4.07707 35.8557 4.25247C35.9299 4.33703 35.9663 4.40028 35.9835 4.43982C35.9995 4.47639 36 4.49425 36 4.5Z" stroke="#9182DE" stroke-width="2"/>
<path d="M36.932 35.8624C37.1322 35.3477 36.8772 34.7682 36.3624 34.568C35.8477 34.3678 35.2682 34.6228 35.068 35.1376L36.932 35.8624ZM35.068 35.1376C34.9466 35.4497 34.5384 35.9294 33.6225 36.4781C32.7391 37.0074 31.5102 37.5249 29.9762 37.9785C26.9129 38.8844 22.7534 39.5 18 39.5V41.5C22.9115 41.5 27.266 40.8656 30.5434 39.8965C32.1797 39.4126 33.5778 38.8364 34.6504 38.1938C35.6906 37.5706 36.5673 36.8003 36.932 35.8624L35.068 35.1376ZM18 39.5C13.2654 39.5 9.37654 38.7644 6.58212 37.7478C5.18356 37.2389 4.0815 36.6678 3.28924 36.1009C2.47882 35.5209 2.07472 35.0045 1.932 34.6376L0.0679953 35.3624C0.411392 36.2455 1.16722 37.0416 2.12529 37.7273C3.10153 38.4259 4.37652 39.0736 5.89831 39.6272C8.94459 40.7356 13.0697 41.5 18 41.5V39.5Z" fill="#9182DE"/>
<path d="M1 19C1.81336 21.0915 6.24946 22.833 13.5 23.3463M23.5 23.3463C30.7505 22.833 35.1866 21.0915 36 19" stroke="#9182DE" stroke-width="2"/>
<line x1="1" y1="5" x2="0.999999" y2="35.12" stroke="#9182DE" stroke-width="2" stroke-linecap="round"/>
<line x1="36" y1="5" x2="36" y2="35.12" stroke="#9182DE" stroke-width="2" stroke-linecap="round"/>
<path d="M23 23.5C23 25.9853 20.9853 28 18.5 28C16.0147 28 14 25.9853 14 23.5C14 21.0147 16.0147 19 18.5 19C20.9853 19 23 21.0147 23 23.5Z" stroke="#9182DE" stroke-width="2"/>
</svg>
